<mxfile host="drawio-plugin" modified="2022-11-23T04:41:18.459Z" agent="5.0 (Windows NT 6.2; Win64; x64) AppleWebKit/537.36 (KHTML, like Gecko) Chrome/98.0.4758.102 Safari/537.36" version="15.5.4" etag="fpT_rN1of9SUrL-6idMc" type="embed"><diagram id="21PG8XAE_n5FY6WRuswt" name="Page-1"><mxGraphModel dx="1144" dy="561" grid="1" gridSize="10" guides="1" tooltips="1" connect="1" arrows="1" fold="1" page="1" pageScale="1" pageWidth="850" pageHeight="1100" math="0" shadow="0"><root><mxCell id="0"/><mxCell id="1" parent="0"/><mxCell id="2" value=":ScrabbleModel" style="shape=umlLifeline;perimeter=lifelinePerimeter;whiteSpace=wrap;html=1;container=1;collapsible=0;recursiveResize=0;outlineConnect=0;" vertex="1" parent="1"><mxGeometry x="140" y="30" width="100" height="360" as="geometry"/></mxCell><mxCell id="3" value="" style="html=1;points=[];perimeter=orthogonalPerimeter;" vertex="1" parent="2"><mxGeometry x="45" y="50" width="10" height="210" as="geometry"/></mxCell><mxCell id="23" value="setLetter(chosenLetter)" style="html=1;verticalAlign=bottom;endArrow=block;rounded=0;" edge="1" parent="2" target="5"><mxGeometry x="0.48" relative="1" as="geometry"><mxPoint x="55" y="244.66000000000008" as="sourcePoint"/><mxPoint x="174.99999999999977" y="244.66000000000008" as="targetPoint"/><mxPoint as="offset"/></mxGeometry></mxCell><mxCell id="4" value="blankTile:Tile" style="shape=umlLifeline;perimeter=lifelinePerimeter;whiteSpace=wrap;html=1;container=1;collapsible=0;recursiveResize=0;outlineConnect=0;" vertex="1" parent="1"><mxGeometry x="400" y="30" width="100" height="360" as="geometry"/></mxCell><mxCell id="5" value="" style="html=1;points=[];perimeter=orthogonalPerimeter;" vertex="1" parent="4"><mxGeometry x="45" y="240" width="10" height="30" as="geometry"/></mxCell><mxCell id="6" value="SetBlankTileLetter" style="ellipse;whiteSpace=wrap;html=1;" vertex="1" parent="1"><mxGeometry x="10" y="20" width="120" height="60" as="geometry"/></mxCell><mxCell id="10" value="" style="shape=umlLifeline;participant=umlActor;perimeter=lifelinePerimeter;whiteSpace=wrap;html=1;container=1;collapsible=0;recursiveResize=0;verticalAlign=top;spacingTop=36;outlineConnect=0;size=40;" vertex="1" parent="1"><mxGeometry x="40" y="90" width="15" height="300" as="geometry"/></mxCell><mxCell id="18" value="" style="html=1;points=[];perimeter=orthogonalPerimeter;" vertex="1" parent="10"><mxGeometry x="2" y="51" width="10" height="60" as="geometry"/></mxCell><mxCell id="11" value="User" style="text;html=1;align=center;verticalAlign=middle;resizable=0;points=[];autosize=1;strokeColor=none;fillColor=none;" vertex="1" parent="1"><mxGeometry x="50" y="100" width="40" height="20" as="geometry"/></mxCell><mxCell id="13" value=":OptionPaneHandler" style="shape=umlLifeline;perimeter=lifelinePerimeter;whiteSpace=wrap;html=1;container=1;collapsible=0;recursiveResize=0;outlineConnect=0;" vertex="1" parent="1"><mxGeometry x="260" y="30" width="120" height="360" as="geometry"/></mxCell><mxCell id="14" value="" style="html=1;points=[];perimeter=orthogonalPerimeter;" vertex="1" parent="13"><mxGeometry x="55" y="60" width="10" height="80" as="geometry"/></mxCell><mxCell id="15" value="" style="html=1;points=[];perimeter=orthogonalPerimeter;" vertex="1" parent="13"><mxGeometry x="55" y="60" width="10" height="130" as="geometry"/></mxCell><mxCell id="16" value="getChosenLetter()" style="html=1;verticalAlign=bottom;endArrow=block;entryX=0;entryY=0;rounded=0;" edge="1" target="15" parent="1" source="3"><mxGeometry relative="1" as="geometry"><mxPoint x="245" y="90" as="sourcePoint"/></mxGeometry></mxCell><mxCell id="19" value="chosenLetter = UserInput" style="html=1;verticalAlign=bottom;endArrow=block;entryX=1;entryY=0;rounded=0;" edge="1" target="18" parent="1" source="15"><mxGeometry x="0.4829" relative="1" as="geometry"><mxPoint x="112" y="141" as="sourcePoint"/><mxPoint as="offset"/></mxGeometry></mxCell><mxCell id="22" value="chosenLetter" style="html=1;verticalAlign=bottom;endArrow=open;dashed=1;endSize=8;rounded=0;exitX=1.134;exitY=1.003;exitDx=0;exitDy=0;exitPerimeter=0;" edge="1" parent="1" source="15" target="3"><mxGeometry relative="1" as="geometry"><mxPoint x="310" y="209.66" as="sourcePoint"/><mxPoint x="230" y="209.66" as="targetPoint"/></mxGeometry></mxCell></root></mxGraphModel></diagram></mxfile>